<svg width="17" height="17" viewBox="0 0 17 17" fill="none" xmlns="http://www.w3.org/2000/svg">
<path d="M8.20712 0.51239C8.31056 0.302795 8.60944 0.302795 8.71288 0.51239L10.8807 4.90491C10.9218 4.98814 11.0012 5.04583 11.093 5.05918L15.9405 5.76355C16.1718 5.79716 16.2641 6.08141 16.0968 6.24456L12.5891 9.66366C12.5227 9.72844 12.4923 9.82179 12.508 9.91327L13.3361 14.7411C13.3756 14.9715 13.1338 15.1472 12.9269 15.0384L8.59123 12.759C8.50907 12.7158 8.41093 12.7158 8.32877 12.759L3.9931 15.0384C3.78621 15.1472 3.54442 14.9715 3.58393 14.7411L4.41197 9.91327C4.42766 9.82179 4.39733 9.72844 4.33087 9.66366L0.823229 6.24456C0.655857 6.08141 0.748215 5.79716 0.979517 5.76355L5.82695 5.05918C5.9188 5.04583 5.9982 4.98814 6.03928 4.90491L8.20712 0.51239Z" fill="#213C53" fill-opacity="0.3"/>
<path d="M8.20712 0.51239C8.31056 0.302795 8.60944 0.302795 8.71288 0.51239L10.8807 4.90491C10.9218 4.98814 11.0012 5.04583 11.093 5.05918L12.9846 5.33403V6.66428V9.27819L12.5891 9.66366C12.5227 9.72844 12.4923 9.82178 12.508 9.91326L13.3361 14.7411C13.3756 14.9715 13.1338 15.1472 12.9269 15.0384L8.59123 12.759C8.50907 12.7158 8.41093 12.7158 8.32877 12.759L3.9931 15.0384C3.78621 15.1472 3.54442 14.9715 3.58393 14.7411L4.41197 9.91326C4.42766 9.82178 4.39733 9.72844 4.33087 9.66366L0.82323 6.24456C0.655858 6.08141 0.748216 5.79716 0.979518 5.76355L5.82695 5.05918C5.9188 5.04583 5.99821 4.98814 6.03928 4.90491L8.20712 0.51239Z" fill="#F4B000"/>
</svg>
